<?xml version="1.0" encoding="utf-8" standalone="yes"?>
<!DOCTYPE svg PUBLIC "-//W3C//DTD SVG 1.1//EN" "http://www.w3.org/Graphics/SVG/1.1/DTD/svg11.dtd">
<svg width="854" height="836" viewBox="0 0 854 836" style="fill:none;stroke:none;fill-rule:evenodd;clip-rule:evenodd;stroke-linecap:round;stroke-linejoin:round;stroke-miterlimit:1.5;" version="1.1" xmlns="http://www.w3.org/2000/svg" xmlns:xlink="http://www.w3.org/1999/xlink"><style class="text-font-style fontImports" data-font-family="Roboto">@import url('https://fonts.googleapis.com/css2?family=Roboto:wght@400;700&amp;display=block');</style><g id="items" style="isolation: isolate"><g id="blend" style="mix-blend-mode: normal"><g id="g-root-ro_1lt0cmgkl9ude-fill" data-item-order="-21600" transform="translate(351, 318)"><g id="ro_1lt0cmgkl9ude-fill" stroke="none" fill="#545454"><g><path d="M 34 10L 130 10C 130 10 154 10 154 34L 154 136C 154 136 154 160 130 160L 34 160C 34 160 10 160 10 136L 10 34C 10 34 10 10 34 10"></path></g></g></g><g id="g-root-ro_141qig8klba4n-fill" data-item-order="-15552" transform="translate(15, 423)"><g id="ro_141qig8klba4n-fill" stroke="none" fill="#60436d"><g><path d="M 22 10L 286 10C 286 10 298 10 298 22L 298 52C 298 52 298 64 286 64L 22 64C 22 64 10 64 10 52L 10 22C 10 22 10 10 22 10"></path></g></g></g><g id="g-root-ro_1d14a20kl8fev-fill" data-item-order="-14904" transform="translate(543, 423)"><g id="ro_1d14a20kl8fev-fill" stroke="none" fill="#3e4e69"><g><path d="M 22 10L 274 10C 274 10 286 10 286 22L 286 52C 286 52 286 64 274 64L 22 64C 22 64 10 64 10 52L 10 22C 10 22 10 10 22 10"></path></g></g></g><g id="g-root-ro_18n6acokl8eto-fill" data-item-order="-14256" transform="translate(111, 123)"><g id="ro_18n6acokl8eto-fill" stroke="none" fill="#3b5649"><g><path d="M 22 10L 262 10C 262 10 274 10 274 22L 274 52C 274 52 274 64 262 64L 22 64C 22 64 10 64 10 52L 10 22C 10 22 10 10 22 10"></path></g></g></g><g id="g-root-ro_141qig8klcnii-fill" data-item-order="-12312" transform="translate(147, 573)"><g id="ro_141qig8klcnii-fill" stroke="none" fill="#54502f"><g><path d="M 22 10L 226 10C 226 10 238 10 238 22L 238 52C 238 52 238 64 226 64L 22 64C 22 64 10 64 10 52L 10 22C 10 22 10 10 22 10"></path></g></g></g><g id="g-root-ro_9ln1kkll43t-fill" data-item-order="-12312" transform="translate(75, 237)"><g id="ro_9ln1kkll43t-fill" stroke="none" fill="#4c4371"><g><path d="M 22 10L 226 10C 226 10 238 10 238 22L 238 52C 238 52 238 64 226 64L 22 64C 22 64 10 64 10 52L 10 22C 10 22 10 10 22 10"></path></g></g></g><g id="g-root-ro_4marqgklibdb-fill" data-item-order="-11664" transform="translate(315, 723)"><g id="ro_4marqgklibdb-fill" stroke="none" fill="#5c4938"><g><path d="M 22 10L 214 10C 214 10 226 10 226 22L 226 52C 226 52 226 64 214 64L 22 64C 22 64 10 64 10 52L 10 22C 10 22 10 10 22 10"></path></g></g></g><g id="g-root-ro_mgp2i0klgutn-fill" data-item-order="-11016" transform="translate(471, 159)"><g id="ro_mgp2i0klgutn-fill" stroke="none" fill="#54502f"><g><path d="M 22 10L 202 10C 202 10 214 10 214 22L 214 52C 214 52 214 64 202 64L 22 64C 22 64 10 64 10 52L 10 22C 10 22 10 10 22 10"></path></g></g></g><g id="g-root-ro_qriv3ckli9zg-fill" data-item-order="-10368" transform="translate(471, 573)"><g id="ro_qriv3ckli9zg-fill" stroke="none" fill="#344e57"><g><path d="M 22 10L 190 10C 190 10 202 10 202 22L 202 52C 202 52 202 64 190 64L 22 64C 22 64 10 64 10 52L 10 22C 10 22 10 10 22 10"></path></g></g></g><g id="g-root-ro_1463nqgklgu80-fill" data-item-order="-10368" transform="translate(543, 237)"><g id="ro_1463nqgklgu80-fill" stroke="none" fill="#60436d"><g><path d="M 22 10L 190 10C 190 10 202 10 202 22L 202 52C 202 52 202 64 190 64L 22 64C 22 64 10 64 10 52L 10 22C 10 22 10 10 22 10"></path></g></g></g><g id="g-root-cu_1upwhd4klcmix-fill" data-item-order="0" transform="translate(447, 186)"></g><g id="g-root-cu_1hi6tigklcmx5-fill" data-item-order="0" transform="translate(333, 177)"></g><g id="g-root-tx__1cw4hd4kljpxg-fill" data-item-order="0" transform="translate(195, 675)"><g id="tx__1cw4hd4kljpxg-fill" stroke="none" fill="#f4f4f4"><g><text style="font: 20px Roboto, sans-serif; white-space: pre;" font-size="20px" font-family="Roboto, sans-serif"><tspan x="15.34" y="34" dominant-baseline="ideographic">کاربردهای صنعتی</tspan></text></g></g></g><g id="g-root-tx__zlag2wkljocl-fill" data-item-order="0" transform="translate(519, 639)"><g id="tx__zlag2wkljocl-fill" stroke="none" fill="#f4f4f4"><g><text style="font: 20px Roboto, sans-serif; white-space: pre;" font-size="20px" font-family="Roboto, sans-serif"><tspan x="13.3" y="34" dominant-baseline="ideographic">روندهای تکنولوژی</tspan></text></g></g></g><g id="g-root-cu_mb2z1kklcmpv-fill" data-item-order="0" transform="translate(303, 264)"></g><g id="g-root-cu_3zgfcklcp3i-fill" data-item-order="0" transform="translate(495, 264)"></g><g id="g-root-tx__1useajskli9kw-fill" data-item-order="0" transform="translate(219, 303)"><g id="tx__1useajskli9kw-fill" stroke="none" fill="#f4f4f4"><g><text style="font: 20px Roboto, sans-serif; white-space: pre;" font-size="20px" font-family="Roboto, sans-serif"><tspan x="12.18" y="34" dominant-baseline="ideographic">چرا؟</tspan></text></g></g></g><g id="g-root-cu_dhbe20klcnba-fill" data-item-order="0" transform="translate(261, 291)"></g><g id="g-root-cu_1hgbe94klcnwh-fill" data-item-order="0" transform="translate(261, 291)"></g><g id="g-root-cu_145hcywklcmbn-fill" data-item-order="0" transform="translate(261, 291)"></g><g id="g-root-cu_qu0ulkklcnwl-fill" data-item-order="0" transform="translate(567, 291)"></g><g id="g-root-cu_dj6tbcklcmbs-fill" data-item-order="0" transform="translate(567, 291)"></g><g id="g-root-cu_93db6wklcn42-fill" data-item-order="0" transform="translate(567, 291)"></g><g id="g-root-tx__1qeg7ookli8ln-fill" data-item-order="0" transform="translate(591, 303)"><g id="tx__1qeg7ookli8ln-fill" stroke="none" fill="#f4f4f4"><g><text style="font: 20px Roboto, sans-serif; white-space: pre;" font-size="20px" font-family="Roboto, sans-serif"><tspan x="13.42" y="34" dominant-baseline="ideographic">مؤلفه‌های کلیدی</tspan></text></g></g></g><g id="g-root-tx__1cuvj6wkljnrc-fill" data-item-order="0" transform="translate(219, 189)"><g id="tx__1cuvj6wkljnrc-fill" stroke="none" fill="#f4f4f4"><g><text style="font: 20px Roboto, sans-serif; white-space: pre;" font-size="20px" font-family="Roboto, sans-serif"><tspan x="15.87" y="34" dominant-baseline="ideographic">طراحی سناریو</tspan></text></g></g></g><g id="g-root-tx__1463qw8kli9kx-fill" data-item-order="0" transform="translate(183, 339)"><g id="tx__1463qw8kli9kx-fill" stroke="none" fill="#f4f4f4"><g><text style="font: 20px Roboto, sans-serif; white-space: pre;" font-size="20px" font-family="Roboto, sans-serif"><tspan x="11.89" y="34" dominant-baseline="ideographic">چه چیزی؟</tspan></text></g></g></g><g id="g-root-tx__1d2zpbcklia6k-fill" data-item-order="0" transform="translate(591, 339)"><g id="tx__1d2zpbcklia6k-fill" stroke="none" fill="#f4f4f4"><g><text style="font: 20px Roboto, sans-serif; white-space: pre;" font-size="20px" font-family="Roboto, sans-serif"><tspan x="13.81" y="34" dominant-baseline="ideographic">معماری‌ها</tspan></text></g></g></g><g id="g-root-tx__4o66zskliadm-fill" data-item-order="0" transform="translate(135, 375)"><g id="tx__4o66zskliadm-fill" stroke="none" fill="#f4f4f4"><g><text style="font: 20px Roboto, sans-serif; white-space: pre;" font-size="20px" font-family="Roboto, sans-serif"><tspan x="17.63" y="34" dominant-baseline="ideographic">برای چه چیزی؟</tspan></text></g></g></g><g id="g-root-tx__vcc5wokli9dx-fill" data-item-order="0" transform="translate(591, 375)"><g id="tx__vcc5wokli9dx-fill" stroke="none" fill="#f4f4f4"><g><text style="font: 20px Roboto, sans-serif; white-space: pre;" font-size="20px" font-family="Roboto, sans-serif"><tspan x="16.69" y="34" dominant-baseline="ideographic">روش‌های حفظ حریم</tspan></text></g></g></g><g id="g-root-cu_1qf2rxkklcoax-fill" data-item-order="0" transform="translate(495, 627)"></g><g id="g-root-tx__8yzwfckljocm-fill" data-item-order="0" transform="translate(519, 675)"><g id="tx__8yzwfckljocm-fill" stroke="none" fill="#f4f4f4"><g><text style="font: 20px Roboto, sans-serif; white-space: pre;" font-size="20px" font-family="Roboto, sans-serif"><tspan x="13.26" y="34" dominant-baseline="ideographic">روندهای تحقیقاتی</tspan></text></g></g></g><g id="g-root-cu_18jffu0klcmiq-fill" data-item-order="0" transform="translate(303, 418)"></g><g id="g-root-cu_1qa2z8oklcnb8-fill" data-item-order="0" transform="translate(495, 418)"></g><g id="g-root-cu_4pf8bsklcmx2-fill" data-item-order="0" transform="translate(495, 627)"></g><g id="g-root-cu_i099m0klcohw-fill" data-item-order="0" transform="translate(333, 627)"></g><g id="g-root-cu_znsfl4klcnbh-fill" data-item-order="0" transform="translate(375, 468)"></g><g id="g-root-cu_hx4w6gklcmiz-fill" data-item-order="0" transform="translate(423, 468)"></g><g id="g-root-cu_v7yxgoklco3s-fill" data-item-order="0" transform="translate(447, 468)"></g><g id="g-root-tx__zjf0tkkljpc9-fill" data-item-order="0" transform="translate(147, 489)"><g id="tx__zjf0tkkljpc9-fill" stroke="none" fill="#f4f4f4"><g><text style="font: 20px Roboto, sans-serif; white-space: pre;" font-size="20px" font-family="Roboto, sans-serif"><tspan x="17.68" y="34" dominant-baseline="ideographic">یادگیری فدرال</tspan></text></g></g></g><g id="g-root-cu_1d2dbe0klcnpg-fill" data-item-order="0" transform="translate(261, 477)"></g><g id="g-root-cu_146qb54klcoi7-fill" data-item-order="0" transform="translate(261, 477)"></g><g id="g-root-cu_7qay0klcnws-fill" data-item-order="0" transform="translate(567, 477)"></g><g id="g-root-cu_1ut0usoklcohz-fill" data-item-order="0" transform="translate(567, 477)"></g><g id="g-root-tx__i0vnjckliayu-fill" data-item-order="0" transform="translate(591, 489)"><g id="tx__i0vnjckliayu-fill" stroke="none" fill="#f4f4f4"><g><text style="font: 20px Roboto, sans-serif; white-space: pre;" font-size="20px" font-family="Roboto, sans-serif"><tspan x="16.57" y="34" dominant-baseline="ideographic">مجموعه داده‌ها</tspan></text></g></g></g><g id="g-root-tx__m8kzjckljnre-fill" data-item-order="0" transform="translate(123, 525)"><g id="tx__m8kzjckljnre-fill" stroke="none" fill="#f4f4f4"><g><text style="font: 20px Roboto, sans-serif; white-space: pre;" font-size="20px" font-family="Roboto, sans-serif"><tspan x="14.61" y="34" dominant-baseline="ideographic">یادگیری غیر فدرال</tspan></text></g></g></g><g id="g-root-tx__1ulj2lkkljojz-fill" data-item-order="0" transform="translate(591, 525)"><g id="tx__1ulj2lkkljojz-fill" stroke="none" fill="#f4f4f4"><g><text style="font: 20px Roboto, sans-serif; white-space: pre;" font-size="20px" font-family="Roboto, sans-serif"><tspan x="16.3" y="34" dominant-baseline="ideographic">ابزارهای نرم‌افزاری</tspan></text></g></g></g><g id="g-root-cu_1cymgvcklcow7-fill" data-item-order="0" transform="translate(375, 150)"></g><g id="g-root-cu_zrja3sklcm4p-fill" data-item-order="0" transform="translate(333, 627)"></g><g id="g-root-tx__1q7kzqgkljocj-fill" data-item-order="0" transform="translate(195, 639)"><g id="tx__1q7kzqgkljocj-fill" stroke="none" fill="#f4f4f4"><g><text style="font: 20px Roboto, sans-serif; white-space: pre;" font-size="20px" font-family="Roboto, sans-serif"><tspan x="12.1" y="34" dominant-baseline="ideographic">کاربردهای آموزشی</tspan></text></g></g></g><g id="g-root-tx__zismw8kle2vf-fill" data-item-order="0" transform="translate(303, 39)"><g id="tx__zismw8kle2vf-fill" stroke="none" fill="#f4f4f4"><g><text style="font: 25px Roboto, sans-serif; white-space: pre;" font-size="25px" font-family="Roboto, sans-serif"><tspan x="13.39" y="42.6" dominant-baseline="ideographic">ساختار مقاله یادگیری فدرال</tspan></text></g></g></g><g id="g-root-tx__4j6eawkliayq-fill" data-item-order="1000000000" transform="translate(519, 588)"><g id="tx__4j6eawkliayq-fill" stroke="none" fill="#1ac3fb"><g><text style="font: 20px Roboto, sans-serif; white-space: pre;" font-size="20px" font-family="Roboto, sans-serif"><tspan x="12.37" y="34" dominant-baseline="ideographic">تحلیل روندهای آینده</tspan></text></g></g></g><g id="g-root-1_zn5vc8kli96r-fill" data-item-order="1000000000" transform="translate(483, 585)"></g><g id="g-root-1_1uo123sklcnih-fill" data-item-order="1000000000" transform="translate(333, 585)"></g><g id="g-root-tx__zko25kklcm4o-fill" data-item-order="1000000000" transform="translate(159, 588)"><g id="tx__zko25kklcm4o-fill" stroke="none" fill="#ffe711"><g><text style="font: 20px Roboto, sans-serif; white-space: pre;" font-size="20px" font-family="Roboto, sans-serif"><tspan x="15.08" y="34" dominant-baseline="ideographic">تحلیل کاربردهای مختلف</tspan></text></g></g></g><g id="g-root-tx__4marqgkl8flx-fill" data-item-order="1000000000" transform="translate(591, 438)"><g id="tx__4marqgkl8flx-fill" stroke="none" fill="#4f91fc"><g><text style="font: 20px Roboto, sans-serif; white-space: pre;" font-size="20px" font-family="Roboto, sans-serif"><tspan x="14.11" y="34" dominant-baseline="ideographic">بررسی اکوسیستم یادگیری فدرال</tspan></text></g></g></g><g id="g-root-anal_1qbybc8kl8gzq-fill" data-item-order="1000000000" transform="translate(555, 435)"></g><g id="g-root-diff_18hk0koklb9ce-fill" data-item-order="1000000000" transform="translate(261, 435)"></g><g id="g-root-tx__8ydii0klb8qt-fill" data-item-order="1000000000" transform="translate(27, 438)"><g id="tx__8ydii0klb8qt-fill" stroke="none" fill="#cb68f9"><g><text style="font: 20px Roboto, sans-serif; white-space: pre;" font-size="20px" font-family="Roboto, sans-serif"><tspan x="12.42" y="34" dominant-baseline="ideographic">مقایسه یادگیری فدرال و غیر فدرال</tspan></text></g></g></g><g id="g-root-tx__de6uawkl9ukg-fill" data-item-order="1000000000" transform="translate(375, 396)"><g id="tx__de6uawkl9ukg-fill" stroke="none" fill="#b7b7b7"><g><text style="font: 20px Roboto, sans-serif; white-space: pre;" font-size="20px" font-family="Roboto, sans-serif"><tspan x="12.59" y="34" dominant-baseline="ideographic">مقاله یادگیری </tspan><tspan x="37.44" y="58" dominant-baseline="ideographic">فدرال</tspan></text></g></g></g><g id="g-root-1_1q8tuqwkl9tl5-fill" data-item-order="1000000000" transform="translate(399, 342)"></g><g id="g-root-tx__1qckp9kklgu8e-fill" data-item-order="1000000000" transform="translate(591, 252)"><g id="tx__1qckp9kklgu8e-fill" stroke="none" fill="#cb68f9"><g><text style="font: 20px Roboto, sans-serif; white-space: pre;" font-size="20px" font-family="Roboto, sans-serif"><tspan x="17.51" y="34" dominant-baseline="ideographic">بررسی مفاهیم پایه</tspan></text></g></g></g><g id="g-root-hier_1d146w8klgvtb-fill" data-item-order="1000000000" transform="translate(555, 249)"></g><g id="g-root-circ_mgp5nskll1q8-fill" data-item-order="1000000000" transform="translate(261, 249)"></g><g id="g-root-tx__147cp2gkll2iv-fill" data-item-order="1000000000" transform="translate(87, 252)"><g id="tx__147cp2gkll2iv-fill" stroke="none" fill="#8769fd"><g><text style="font: 20px Roboto, sans-serif; white-space: pre;" font-size="20px" font-family="Roboto, sans-serif"><tspan x="12.83" y="34" dominant-baseline="ideographic">پاسخ به پرسش‌های کلیدی</tspan></text></g></g></g><g id="g-root-tx__8clpkklgvsx-fill" data-item-order="1000000000" transform="translate(519, 174)"><g id="tx__8clpkklgvsx-fill" stroke="none" fill="#ffe711"><g><text style="font: 20px Roboto, sans-serif; white-space: pre;" font-size="20px" font-family="Roboto, sans-serif"><tspan x="16.42" y="34" dominant-baseline="ideographic">معرفی اصول بنیادی</tspan></text></g></g></g><g id="g-root-tx__1448bmwkliakl-fill" data-item-order="1000000000" transform="translate(363, 738)"><g id="tx__1448bmwkliakl-fill" stroke="none" fill="#f79438"><g><text style="font: 20px Roboto, sans-serif; white-space: pre;" font-size="20px" font-family="Roboto, sans-serif"><tspan x="16.31" y="34" dominant-baseline="ideographic">نتیجه‌گیری و جمع‌بندی</tspan></text></g></g></g><g id="g-root-sigm_hxra3skli9se-fill" data-item-order="1000000000" transform="translate(327, 735)"></g><g id="g-root-1_1hi6tigkl8h6r-fill" data-item-order="1000000000" transform="translate(333, 135)"></g><g id="g-root-tx__93db6wkl8hdu-fill" data-item-order="1000000000" transform="translate(123, 138)"><g id="tx__93db6wkl8hdu-fill" stroke="none" fill="#43dd93"><g><text style="font: 20px Roboto, sans-serif; white-space: pre;" font-size="20px" font-family="Roboto, sans-serif"><tspan x="11.95" y="34" dominant-baseline="ideographic">ارائه متدولوژی طراحی سناریو</tspan></text></g></g></g><g id="g-root-exe_1d2zm5kklgutm-fill" data-item-order="1000000000" transform="translate(483, 171)"></g><g id="g-root-ro_1lt0cmgkl9ude-stroke" data-item-order="-21600" transform="translate(351, 318)"><g id="ro_1lt0cmgkl9ude-stroke" fill="none" stroke-linecap="round" stroke-linejoin="round" stroke-miterlimit="4" stroke="#f4f4f4" stroke-width="2"><g><path d="M 34 10L 130 10C 130 10 154 10 154 34L 154 136C 154 136 154 160 130 160L 34 160C 34 160 10 160 10 136L 10 34C 10 34 10 10 34 10"></path></g></g></g><g id="g-root-ro_141qig8klba4n-stroke" data-item-order="-15552" transform="translate(15, 423)"><g id="ro_141qig8klba4n-stroke" fill="none" stroke-linecap="round" stroke-linejoin="round" stroke-miterlimit="4" stroke="#cb68f9" stroke-width="2"><g><path d="M 22 10L 286 10C 286 10 298 10 298 22L 298 52C 298 52 298 64 286 64L 22 64C 22 64 10 64 10 52L 10 22C 10 22 10 10 22 10"></path></g></g></g><g id="g-root-ro_1d14a20kl8fev-stroke" data-item-order="-14904" transform="translate(543, 423)"><g id="ro_1d14a20kl8fev-stroke" fill="none" stroke-linecap="round" stroke-linejoin="round" stroke-miterlimit="4" stroke="#4f91fc" stroke-width="2"><g><path d="M 22 10L 274 10C 274 10 286 10 286 22L 286 52C 286 52 286 64 274 64L 22 64C 22 64 10 64 10 52L 10 22C 10 22 10 10 22 10"></path></g></g></g><g id="g-root-ro_18n6acokl8eto-stroke" data-item-order="-14256" transform="translate(111, 123)"><g id="ro_18n6acokl8eto-stroke" fill="none" stroke-linecap="round" stroke-linejoin="round" stroke-miterlimit="4" stroke="#43dd93" stroke-width="2"><g><path d="M 22 10L 262 10C 262 10 274 10 274 22L 274 52C 274 52 274 64 262 64L 22 64C 22 64 10 64 10 52L 10 22C 10 22 10 10 22 10"></path></g></g></g><g id="g-root-ro_141qig8klcnii-stroke" data-item-order="-12312" transform="translate(147, 573)"><g id="ro_141qig8klcnii-stroke" fill="none" stroke-linecap="round" stroke-linejoin="round" stroke-miterlimit="4" stroke="#ffe711" stroke-width="2"><g><path d="M 22 10L 226 10C 226 10 238 10 238 22L 238 52C 238 52 238 64 226 64L 22 64C 22 64 10 64 10 52L 10 22C 10 22 10 10 22 10"></path></g></g></g><g id="g-root-ro_9ln1kkll43t-stroke" data-item-order="-12312" transform="translate(75, 237)"><g id="ro_9ln1kkll43t-stroke" fill="none" stroke-linecap="round" stroke-linejoin="round" stroke-miterlimit="4" stroke="#8769fd" stroke-width="2"><g><path d="M 22 10L 226 10C 226 10 238 10 238 22L 238 52C 238 52 238 64 226 64L 22 64C 22 64 10 64 10 52L 10 22C 10 22 10 10 22 10"></path></g></g></g><g id="g-root-ro_4marqgklibdb-stroke" data-item-order="-11664" transform="translate(315, 723)"><g id="ro_4marqgklibdb-stroke" fill="none" stroke-linecap="round" stroke-linejoin="round" stroke-miterlimit="4" stroke="#f79438" stroke-width="2"><g><path d="M 22 10L 214 10C 214 10 226 10 226 22L 226 52C 226 52 226 64 214 64L 22 64C 22 64 10 64 10 52L 10 22C 10 22 10 10 22 10"></path></g></g></g><g id="g-root-ro_mgp2i0klgutn-stroke" data-item-order="-11016" transform="translate(471, 159)"><g id="ro_mgp2i0klgutn-stroke" fill="none" stroke-linecap="round" stroke-linejoin="round" stroke-miterlimit="4" stroke="#ffe711" stroke-width="2"><g><path d="M 22 10L 202 10C 202 10 214 10 214 22L 214 52C 214 52 214 64 202 64L 22 64C 22 64 10 64 10 52L 10 22C 10 22 10 10 22 10"></path></g></g></g><g id="g-root-ro_qriv3ckli9zg-stroke" data-item-order="-10368" transform="translate(471, 573)"><g id="ro_qriv3ckli9zg-stroke" fill="none" stroke-linecap="round" stroke-linejoin="round" stroke-miterlimit="4" stroke="#1ac3fb" stroke-width="2"><g><path d="M 22 10L 190 10C 190 10 202 10 202 22L 202 52C 202 52 202 64 190 64L 22 64C 22 64 10 64 10 52L 10 22C 10 22 10 10 22 10"></path></g></g></g><g id="g-root-ro_1463nqgklgu80-stroke" data-item-order="-10368" transform="translate(543, 237)"><g id="ro_1463nqgklgu80-stroke" fill="none" stroke-linecap="round" stroke-linejoin="round" stroke-miterlimit="4" stroke="#cb68f9" stroke-width="2"><g><path d="M 22 10L 190 10C 190 10 202 10 202 22L 202 52C 202 52 202 64 190 64L 22 64C 22 64 10 64 10 52L 10 22C 10 22 10 10 22 10"></path></g></g></g><g id="g-root-cu_1upwhd4klcmix-stroke" data-item-order="0" transform="translate(447, 186)"><g id="cu_1upwhd4klcmix-stroke" fill="none" stroke-linecap="round" stroke-linejoin="round" stroke-miterlimit="4" stroke="#b7b7b7" stroke-width="2" stroke-dasharray="5.0, 7.0"><g><path d="M 10 142L 10 125.5L 10 30.9C 10 19.357248 19.357248 10 30.899998 10L 31 10L 34 10"></path></g></g></g><g id="g-root-cu_1hi6tigklcmx5-stroke" data-item-order="0" transform="translate(333, 177)"><g id="cu_1hi6tigklcmx5-stroke" fill="none" stroke-linecap="round" stroke-linejoin="round" stroke-miterlimit="4" stroke="#b7b7b7" stroke-width="2" stroke-dasharray="5.0, 7.0"><g><path d="M 28 10L 28 13L 28 22C 27.999999 28.627417 22.627416 34 15.999999 34L 15.9 34L 10 34"></path></g></g></g><g id="g-root-tx__1cw4hd4kljpxg-stroke" data-item-order="0" transform="translate(195, 675)"></g><g id="g-root-tx__zlag2wkljocl-stroke" data-item-order="0" transform="translate(519, 639)"></g><g id="g-root-cu_mb2z1kklcmpv-stroke" data-item-order="0" transform="translate(303, 264)"><g id="cu_mb2z1kklcmpv-stroke" fill="none" stroke-linecap="round" stroke-linejoin="round" stroke-miterlimit="4" stroke="#b7b7b7" stroke-width="2" stroke-dasharray="5.0, 7.0"><g><path d="M 58 114L 55 114L 54.9 114C 43.357245 113.999995 33.999997 104.642746 33.999997 93.099996L 34 93L 34 30.9C 33.999998 19.357248 24.64275 10 13.1 10L 13 10L 10 10"></path></g></g></g><g id="g-root-cu_3zgfcklcp3i-stroke" data-item-order="0" transform="translate(495, 264)"><g id="cu_3zgfcklcp3i-stroke" fill="none" stroke-linecap="round" stroke-linejoin="round" stroke-miterlimit="4" stroke="#b7b7b7" stroke-width="2" stroke-dasharray="5.0, 7.0"><g><path d="M 10 114L 13 114L 13.1 114C 24.642749 114.000006 33.999999 104.642757 33.999998 93.100005L 34 93L 34 30.9C 33.999999 19.357249 43.357248 10.000001 54.899999 10.000002L 55 10L 58 10"></path></g></g></g><g id="g-root-tx__1useajskli9kw-stroke" data-item-order="0" transform="translate(219, 303)"></g><g id="g-root-cu_dhbe20klcnba-stroke" data-item-order="0" transform="translate(261, 291)"><g id="cu_dhbe20klcnba-stroke" fill="none" stroke-linecap="round" stroke-linejoin="round" stroke-miterlimit="4" stroke="#b7b7b7" stroke-width="2" stroke-dasharray="5.0, 7.0"><g><path d="M 28 10L 28 22L 28 34L 19 34L 10 34"></path></g></g></g><g id="g-root-cu_1hgbe94klcnwh-stroke" data-item-order="0" transform="translate(261, 291)"><g id="cu_1hgbe94klcnwh-stroke" fill="none" stroke-linecap="round" stroke-linejoin="round" stroke-miterlimit="4" stroke="#b7b7b7" stroke-width="2" stroke-dasharray="5.0, 7.0"><g><path d="M 28 10L 28 40L 28 70L 19 70L 10 70"></path></g></g></g><g id="g-root-cu_145hcywklcmbn-stroke" data-item-order="0" transform="translate(261, 291)"><g id="cu_145hcywklcmbn-stroke" fill="none" stroke-linecap="round" stroke-linejoin="round" stroke-miterlimit="4" stroke="#b7b7b7" stroke-width="2" stroke-dasharray="5.0, 7.0"><g><path d="M 28 10L 28 22L 28 94C 28.000002 100.627415 22.627419 105.999998 16.000002 105.999998L 15.9 106L 10 106"></path></g></g></g><g id="g-root-cu_qu0ulkklcnwl-stroke" data-item-order="0" transform="translate(567, 291)"><g id="cu_qu0ulkklcnwl-stroke" fill="none" stroke-linecap="round" stroke-linejoin="round" stroke-miterlimit="4" stroke="#b7b7b7" stroke-width="2" stroke-dasharray="5.0, 7.0"><g><path d="M 10 10L 10 22L 10 34L 19 34L 28 34"></path></g></g></g><g id="g-root-cu_dj6tbcklcmbs-stroke" data-item-order="0" transform="translate(567, 291)"><g id="cu_dj6tbcklcmbs-stroke" fill="none" stroke-linecap="round" stroke-linejoin="round" stroke-miterlimit="4" stroke="#b7b7b7" stroke-width="2" stroke-dasharray="5.0, 7.0"><g><path d="M 10 10L 10 40L 10 70L 19 70L 28 70"></path></g></g></g><g id="g-root-cu_93db6wklcn42-stroke" data-item-order="0" transform="translate(567, 291)"><g id="cu_93db6wklcn42-stroke" fill="none" stroke-linecap="round" stroke-linejoin="round" stroke-miterlimit="4" stroke="#b7b7b7" stroke-width="2" stroke-dasharray="5.0, 7.0"><g><path d="M 10 10L 10 22L 10 94C 10.000004 100.627423 15.372587 106.000006 22.000005 106.000005L 22.1 106L 28 106"></path></g></g></g><g id="g-root-tx__1qeg7ookli8ln-stroke" data-item-order="0" transform="translate(591, 303)"></g><g id="g-root-tx__1cuvj6wkljnrc-stroke" data-item-order="0" transform="translate(219, 189)"></g><g id="g-root-tx__1463qw8kli9kx-stroke" data-item-order="0" transform="translate(183, 339)"></g><g id="g-root-tx__1d2zpbcklia6k-stroke" data-item-order="0" transform="translate(591, 339)"></g><g id="g-root-tx__4o66zskliadm-stroke" data-item-order="0" transform="translate(135, 375)"></g><g id="g-root-tx__vcc5wokli9dx-stroke" data-item-order="0" transform="translate(591, 375)"></g><g id="g-root-cu_1qf2rxkklcoax-stroke" data-item-order="0" transform="translate(495, 627)"><g id="cu_1qf2rxkklcoax-stroke" fill="none" stroke-linecap="round" stroke-linejoin="round" stroke-miterlimit="4" stroke="#b7b7b7" stroke-width="2" stroke-dasharray="5.0, 7.0"><g><path d="M 10 10L 10 17.5L 10 58C 10.000002 64.627417 15.372585 70 22.000002 69.999999L 22.1 70L 28 70"></path></g></g></g><g id="g-root-tx__8yzwfckljocm-stroke" data-item-order="0" transform="translate(519, 675)"></g><g id="g-root-cu_18jffu0klcmiq-stroke" data-item-order="0" transform="translate(303, 418)"><g id="cu_18jffu0klcmiq-stroke" fill="none" stroke-linecap="round" stroke-linejoin="round" stroke-miterlimit="4" stroke="#b7b7b7" stroke-width="2" stroke-dasharray="5.0, 7.0"><g><path d="M 58 10L 55 10L 54.9 10C 50.611929 10.004962 45.995266 11.578824 41.700001 14.500001C 39.147207 16.234511 36.356002 20.403194 34.000002 26.000001C 31.644001 31.596807 28.852796 35.76549 26.300001 37.500001C 22.004737 40.421177 17.388073 41.995039 13.100001 42L 13 42L 10 42"></path></g></g></g><g id="g-root-cu_1qa2z8oklcnb8-stroke" data-item-order="0" transform="translate(495, 418)"><g id="cu_1qa2z8oklcnb8-stroke" fill="none" stroke-linecap="round" stroke-linejoin="round" stroke-miterlimit="4" stroke="#b7b7b7" stroke-width="2" stroke-dasharray="5.0, 7.0"><g><path d="M 10 10L 13 10L 13.1 10C 17.388073 10.00496 22.004736 11.578822 26.300001 14.499999C 28.852796 16.234511 31.644001 20.403194 34.000002 26C 36.356002 31.596807 39.147208 35.76549 41.700003 37.500001C 45.995265 40.421176 50.611928 41.995038 54.900001 41.999998L 55 42L 58 42"></path></g></g></g><g id="g-root-cu_4pf8bsklcmx2-stroke" data-item-order="0" transform="translate(495, 627)"><g id="cu_4pf8bsklcmx2-stroke" fill="none" stroke-linecap="round" stroke-linejoin="round" stroke-miterlimit="4" stroke="#b7b7b7" stroke-width="2" stroke-dasharray="5.0, 7.0"><g><path d="M 10 10L 10 22L 10 34L 19 34L 28 34"></path></g></g></g><g id="g-root-cu_i099m0klcohw-stroke" data-item-order="0" transform="translate(333, 627)"><g id="cu_i099m0klcohw-stroke" fill="none" stroke-linecap="round" stroke-linejoin="round" stroke-miterlimit="4" stroke="#b7b7b7" stroke-width="2" stroke-dasharray="5.0, 7.0"><g><path d="M 28 10L 28 17.5L 28 58C 27.999999 64.627415 22.627416 69.999998 16 69.999998L 15.9 70L 10 70"></path></g></g></g><g id="g-root-cu_znsfl4klcnbh-stroke" data-item-order="0" transform="translate(375, 468)"><g id="cu_znsfl4klcnbh-stroke" fill="none" stroke-linecap="round" stroke-linejoin="round" stroke-miterlimit="4" stroke="#b7b7b7" stroke-width="2" stroke-dasharray="5.0, 7.0"><g><path d="M 34 10L 34 26.5L 34 121.1C 34.000002 132.642753 24.642753 142.000002 13.100001 142.000002L 13 142L 10 142"></path></g></g></g><g id="g-root-cu_hx4w6gklcmiz-stroke" data-item-order="0" transform="translate(423, 468)"><g id="cu_hx4w6gklcmiz-stroke" fill="none" stroke-linecap="round" stroke-linejoin="round" stroke-miterlimit="4" stroke="#b7b7b7" stroke-width="2" stroke-dasharray="5.0, 7.0"><g><path d="M 10 10L 10 137.5L 10 265"></path></g></g></g><g id="g-root-cu_v7yxgoklco3s-stroke" data-item-order="0" transform="translate(447, 468)"><g id="cu_v7yxgoklco3s-stroke" fill="none" stroke-linecap="round" stroke-linejoin="round" stroke-miterlimit="4" stroke="#b7b7b7" stroke-width="2" stroke-dasharray="5.0, 7.0"><g><path d="M 10 10L 10 26.5L 10 121.1C 10.000001 132.642752 19.357249 142.000001 30.900001 142.000001L 31 142L 34 142"></path></g></g></g><g id="g-root-tx__zjf0tkkljpc9-stroke" data-item-order="0" transform="translate(147, 489)"></g><g id="g-root-cu_1d2dbe0klcnpg-stroke" data-item-order="0" transform="translate(261, 477)"><g id="cu_1d2dbe0klcnpg-stroke" fill="none" stroke-linecap="round" stroke-linejoin="round" stroke-miterlimit="4" stroke="#b7b7b7" stroke-width="2" stroke-dasharray="5.0, 7.0"><g><path d="M 28 10L 28 22L 28 34L 19 34L 10 34"></path></g></g></g><g id="g-root-cu_146qb54klcoi7-stroke" data-item-order="0" transform="translate(261, 477)"><g id="cu_146qb54klcoi7-stroke" fill="none" stroke-linecap="round" stroke-linejoin="round" stroke-miterlimit="4" stroke="#b7b7b7" stroke-width="2" stroke-dasharray="5.0, 7.0"><g><path d="M 28 10L 28 17.5L 28 58C 27.999999 64.627415 22.627416 69.999998 16 69.999998L 15.9 70L 10 70"></path></g></g></g><g id="g-root-cu_7qay0klcnws-stroke" data-item-order="0" transform="translate(567, 477)"><g id="cu_7qay0klcnws-stroke" fill="none" stroke-linecap="round" stroke-linejoin="round" stroke-miterlimit="4" stroke="#b7b7b7" stroke-width="2" stroke-dasharray="5.0, 7.0"><g><path d="M 10 10L 10 22L 10 34L 19 34L 28 34"></path></g></g></g><g id="g-root-cu_1ut0usoklcohz-stroke" data-item-order="0" transform="translate(567, 477)"><g id="cu_1ut0usoklcohz-stroke" fill="none" stroke-linecap="round" stroke-linejoin="round" stroke-miterlimit="4" stroke="#b7b7b7" stroke-width="2" stroke-dasharray="5.0, 7.0"><g><path d="M 10 10L 10 17.5L 10 58C 10.000002 64.627417 15.372585 70 22.000002 69.999999L 22.1 70L 28 70"></path></g></g></g><g id="g-root-tx__i0vnjckliayu-stroke" data-item-order="0" transform="translate(591, 489)"></g><g id="g-root-tx__m8kzjckljnre-stroke" data-item-order="0" transform="translate(123, 525)"></g><g id="g-root-tx__1ulj2lkkljojz-stroke" data-item-order="0" transform="translate(591, 525)"></g><g id="g-root-cu_1cymgvcklcow7-stroke" data-item-order="0" transform="translate(375, 150)"><g id="cu_1cymgvcklcow7-stroke" fill="none" stroke-linecap="round" stroke-linejoin="round" stroke-miterlimit="4" stroke="#b7b7b7" stroke-width="2" stroke-dasharray="5.0, 7.0"><g><path d="M 34 178L 34 157L 34 30.9C 33.999998 19.357248 24.64275 10 13.1 10L 13 10L 10 10"></path></g></g></g><g id="g-root-cu_zrja3sklcm4p-stroke" data-item-order="0" transform="translate(333, 627)"><g id="cu_zrja3sklcm4p-stroke" fill="none" stroke-linecap="round" stroke-linejoin="round" stroke-miterlimit="4" stroke="#b7b7b7" stroke-width="2" stroke-dasharray="5.0, 7.0"><g><path d="M 28 10L 28 22L 28 34L 19 34L 10 34"></path></g></g></g><g id="g-root-tx__1q7kzqgkljocj-stroke" data-item-order="0" transform="translate(195, 639)"></g><g id="g-root-tx__zismw8kle2vf-stroke" data-item-order="0" transform="translate(303, 39)"></g><g id="g-root-tx__4j6eawkliayq-stroke" data-item-order="1000000000" transform="translate(519, 588)"></g><g id="g-root-1_zn5vc8kli96r-stroke" data-item-order="1000000000" transform="translate(483, 585)"><g id="1_zn5vc8kli96r-stroke" fill="none" stroke-linecap="round" stroke-linejoin="round" stroke-miterlimit="4" stroke="#1ac3fb" stroke-width="2"><g><path d="M 30.095251 29.929874L 16.119801 29.929874L 17.668425 25.771626C 18.133013 24.539625 19.371925 23.769501 20.610825 23.769501L 25.60425 23.769501C 26.843124 23.769501 28.082001 24.539625 28.546625 25.771626L 30.095251 29.929874ZM 30.598625 36.663498L 32.921623 36.663498C 33.85075 36.663498 34.470249 36.043999 34.470249 35.114876L 34.470249 33.028873C 34.470249 31.325377 33.0765 29.931625 31.373001 29.931625L 14.338125 29.931625C 12.634638 29.931625 11.240876 31.325377 11.240876 33.028873L 11.240876 35.114876C 11.240876 36.043999 11.860325 36.663498 12.7895 36.663498L 15.112437 36.663498M 19.757662 36.660126L 25.952126 36.660126M 28.275249 38.98175C 26.992249 38.98175 25.95225 37.94175 25.95225 36.658875C 25.95225 35.375999 26.992249 34.335999 28.275249 34.335999C 29.558125 34.335999 30.598125 35.375999 30.598125 36.658875C 30.598125 37.94175 29.558125 38.98175 28.275249 38.98175ZM 17.435362 38.98175C 16.152451 38.98175 15.112437 37.94175 15.112437 36.658875C 15.112437 35.375999 16.152451 34.335999 17.435362 34.335999C 18.718287 34.335999 19.758301 35.375999 19.758301 36.658875C 19.758301 37.94175 18.718287 38.98175 17.435362 38.98175ZM 30.776251 14.23875L 36.258751 14.23875C 36.258751 14.23875 38.758751 14.23875 38.758751 16.73875L 38.758751 19.893749C 38.758751 19.893749 38.758751 22.393749 36.258751 22.393749L 30.776251 22.393749C 30.776251 22.393749 28.276251 22.393749 28.276251 19.893749L 28.276251 16.73875C 28.276251 16.73875 28.276251 14.23875 30.776251 14.23875M 10 10M 33.518127 11.021813L 33.518127 14.238275M 10 10M 31.799376 17.590725L 31.799376 19.042974M 10 10M 35.236877 17.590725L 35.236877 19.042974"></path></g></g></g><g id="g-root-1_1uo123sklcnih-stroke" data-item-order="1000000000" transform="translate(333, 585)"><g id="1_1uo123sklcnih-stroke" fill="none" stroke-linecap="round" stroke-linejoin="round" stroke-miterlimit="4" stroke="#ffe711" stroke-width="2"><g><path d="M 38.92857 25C 38.92857 32.692539 32.692539 38.92857 25 38.92857C 17.307463 38.92857 11.071429 32.692539 11.071429 25M 37.857143 19.407143C 37.430832 18.415169 36.88385 17.47954 36.228569 16.621428C 35.607868 15.761911 34.888691 14.978006 34.085712 14.285714M 12.25 19.407143C 12.676308 18.415169 13.22329 17.47954 13.878572 16.621428C 14.525955 15.75705 15.274093 14.972943 16.107143 14.285714M 28.214285 11.435715C 26.098974 10.949803 23.901024 10.949803 21.785713 11.435714"></path></g></g></g><g id="g-root-tx__zko25kklcm4o-stroke" data-item-order="1000000000" transform="translate(159, 588)"></g><g id="g-root-tx__4marqgkl8flx-stroke" data-item-order="1000000000" transform="translate(591, 438)"></g><g id="g-root-anal_1qbybc8kl8gzq-stroke" data-item-order="1000000000" transform="translate(555, 435)"><g id="anal_1qbybc8kl8gzq-stroke" fill="none" stroke-linecap="round" stroke-linejoin="round" stroke-miterlimit="4" stroke="#4f91fc" stroke-width="2"><g><path d="M 36.5625 10.874939C 37.9375 10.874939 39.0625 11.999937 39.0625 13.374937L 39.0625 18.374937L 10.9375 18.374937L 10.9375 13.374937C 10.9375 11.999937 12.0625 10.874939 13.4375 10.874939L 36.5625 10.874939ZM 20.3125 18.374937L 20.3125 33.125L 13.4375 33.125C 12.0625 33.125 10.9375 32 10.9375 30.625L 10.9375 18.374937L 20.3125 18.374937ZM 10.9375 25.875L 20.3125 25.875M 29.6875 18.374937L 29.6875 25.875M 20.3125 25.875L 29.6875 25.875M 29.6875 18.374937L 39.0625 18.374937L 39.0625 25.875L 29.6875 25.875M 26.5625 29.124874L 26.5625 39.124874L 39.0625 39.124874M 26.5625 35.624878C 29.0625 35.624878 31.3125 34.749874 32.6875 33.249874L 33.9375 31.874876C 35.0625 30.624876 36.9375 29.874876 39.0625 29.874876"></path></g></g></g><g id="g-root-diff_18hk0koklb9ce-stroke" data-item-order="1000000000" transform="translate(261, 435)"><g id="diff_18hk0koklb9ce-stroke" fill="none" stroke-linecap="round" stroke-linejoin="round" stroke-miterlimit="4" stroke="#cb68f9" stroke-width="2"><g><path d="M 38.125 37.1875C 38.125 37.68475 37.927498 38.161751 37.575874 38.513374C 37.224251 38.864998 36.74725 39.0625 36.25 39.0625L 13.75 39.0625C 13.252725 39.0625 12.7758 38.864998 12.424175 38.513374C 12.07255 38.161751 11.875 37.68475 11.875 37.1875L 11.875 12.8125C 11.875 12.315225 12.07255 11.8383 12.424175 11.486675C 12.7758 11.135044 13.252725 10.9375 13.75 10.9375L 32.5 10.9375C 32.988998 10.937549 33.458626 11.128632 33.80875 11.47L 37.55875 15.07375C 37.737999 15.248412 37.880375 15.457188 37.977623 15.68775C 38.074875 15.918313 38.125 16.166012 38.125 16.41625L 38.125 37.1875ZM 10 10M 30 32.8125L 20 32.8125M 10 10M 30 22.1875L 20 22.1875M 10 10M 25 27.1875L 25 17.1875"></path></g></g></g><g id="g-root-tx__8ydii0klb8qt-stroke" data-item-order="1000000000" transform="translate(27, 438)"></g><g id="g-root-tx__de6uawkl9ukg-stroke" data-item-order="1000000000" transform="translate(375, 396)"></g><g id="g-root-1_1q8tuqwkl9tl5-stroke" data-item-order="1000000000" transform="translate(399, 342)"><g id="1_1q8tuqwkl9tl5-stroke" fill="none" stroke-linecap="round" stroke-linejoin="round" stroke-miterlimit="4" stroke="#b7b7b7" stroke-width="2"><g><path d="M 11.714286 34C 11.714286 37.787094 14.784333 40.857143 18.571428 40.857143C 22.358524 40.857143 25.428572 37.787094 25.428572 34C 25.428572 30.212906 22.358524 27.142857 18.571428 27.142857C 14.784333 27.142857 11.714286 30.212906 11.714286 34M 42.57143 18.571428C 42.57143 22.358524 45.641476 25.428572 49.428574 25.428572C 53.215668 25.428572 56.285713 22.358524 56.285713 18.571428C 56.285713 14.784333 53.215668 11.714286 49.428574 11.714286C 45.641476 11.714286 42.57143 14.784333 42.57143 18.571428M 42.57143 49.428574C 42.57143 53.215668 45.641476 56.285713 49.428574 56.285713C 53.215668 56.285713 56.285713 53.215668 56.285713 49.428574C 56.285713 45.641476 53.215668 42.57143 49.428574 42.57143C 45.641476 42.57143 42.57143 45.641476 42.57143 49.428574M 22.719999 28.548571L 42.777145 20.217142M 22.719999 39.451431L 42.777145 47.78286"></path></g></g></g><g id="g-root-tx__1qckp9kklgu8e-stroke" data-item-order="1000000000" transform="translate(591, 252)"></g><g id="g-root-hier_1d146w8klgvtb-stroke" data-item-order="1000000000" transform="translate(555, 249)"><g id="hier_1d146w8klgvtb-stroke" fill="none" stroke-linecap="round" stroke-linejoin="round" stroke-miterlimit="4" stroke="#cb68f9" stroke-width="2"><g><path d="M 15 31.875L 15 28.75C 15 28.404823 15.279821 28.125 15.625 28.125L 34.375 28.125C 34.720177 28.125 35 28.404823 35 28.75L 35 31.875M 25 24.375L 25 31.875M 11.25 35.625C 11.25 37.696068 12.928932 39.375 15 39.375C 17.071068 39.375 18.75 37.696068 18.75 35.625C 18.75 33.553932 17.071068 31.875 15 31.875C 12.928932 31.875 11.25 33.553932 11.25 35.625ZM 21.25 35.625C 21.25 37.696068 22.928932 39.375 25 39.375C 27.071068 39.375 28.75 37.696068 28.75 35.625C 28.75 33.553932 27.071068 31.875 25 31.875C 22.928932 31.875 21.25 33.553932 21.25 35.625ZM 31.25 35.625C 31.25 37.696068 32.928932 39.375 35 39.375C 37.071068 39.375 38.75 37.696068 38.75 35.625C 38.75 33.553932 37.071068 31.875 35 31.875C 32.928932 31.875 31.25 33.553932 31.25 35.625ZM 31.25 23.125C 31.25 23.815357 30.690355 24.375 30 24.375L 20 24.375C 19.309645 24.375 18.75 23.815357 18.75 23.125L 18.75 16.875C 18.75 16.184645 19.309645 15.625 20 15.625L 30 15.625C 30.690355 15.625 31.25 16.184645 31.25 16.875ZM 23.75 20C 23.75 20.690357 24.309643 21.25 25 21.25C 25.690357 21.25 26.25 20.690357 26.25 20C 26.25 19.309645 25.690357 18.75 25 18.75C 24.309643 18.75 23.75 19.309645 23.75 20ZM 28.75 15.625L 28.75 14.375C 28.75 12.303932 27.071068 10.625 25 10.625C 22.928932 10.625 21.25 12.303932 21.25 14.375L 21.25 15.625"></path></g></g></g><g id="g-root-circ_mgp5nskll1q8-stroke" data-item-order="1000000000" transform="translate(261, 249)"><g id="circ_mgp5nskll1q8-stroke" fill="none" stroke-linecap="round" stroke-linejoin="round" stroke-miterlimit="4" stroke="#8769fd" stroke-width="2"><g><path d="M 20.3125 22.1775C 20.30888 19.718275 22.205437 17.673891 24.658024 17.493265C 27.110611 17.312639 29.286205 19.057121 29.6429 21.490345C 29.999596 23.923567 28.416237 26.219088 26.014999 26.75C 25.431084 26.865202 25.007656 27.373629 25 27.96875L 25 29.360001M 25 32.490002C 25.172588 32.490002 25.3125 32.629913 25.3125 32.802502C 25.3125 32.97509 25.172588 33.115002 25 33.115002C 24.827412 33.115002 24.6875 32.97509 24.6875 32.802502C 24.6875 32.629913 24.827412 32.490002 25 32.490002M 10.625 25.001251C 10.625 32.940342 17.060907 39.376251 25 39.376251C 32.939095 39.376251 39.375 32.940342 39.375 25.001251C 39.375 17.062157 32.939095 10.62625 25 10.62625C 17.060907 10.62625 10.625 17.062157 10.625 25.001251Z"></path></g></g></g><g id="g-root-tx__147cp2gkll2iv-stroke" data-item-order="1000000000" transform="translate(87, 252)"></g><g id="g-root-tx__8clpkklgvsx-stroke" data-item-order="1000000000" transform="translate(519, 174)"></g><g id="g-root-tx__1448bmwkliakl-stroke" data-item-order="1000000000" transform="translate(363, 738)"></g><g id="g-root-sigm_hxra3skli9se-stroke" data-item-order="1000000000" transform="translate(327, 735)"><g id="sigm_hxra3skli9se-stroke" fill="none" stroke-linecap="round" stroke-linejoin="round" stroke-miterlimit="4" stroke="#f79438" stroke-width="2"><g><path d="M 38.92857 38.92857L 12.142857 38.92857C 11.71032 38.926411 11.321504 38.664383 11.157143 38.264282C 10.97762 37.868137 11.072676 37.401501 11.392857 37.10714L 22.728571 25.75C 23.136938 25.333382 23.136938 24.666618 22.728571 24.25L 11.392857 12.892858C 11.072676 12.5985 10.97762 12.131863 11.157143 11.735714C 11.321504 11.335615 11.71032 11.073587 12.142857 11.071428L 38.92857 11.071428"></path></g></g></g><g id="g-root-1_1hi6tigkl8h6r-stroke" data-item-order="1000000000" transform="translate(333, 135)"><g id="1_1hi6tigkl8h6r-stroke" fill="none" stroke-linecap="round" stroke-linejoin="round" stroke-miterlimit="4" stroke="#43dd93" stroke-width="2"><g><path d="M 21.875 35.625L 28.125 35.625M 21.875 32.685001L 21.875 36.875C 21.875 37.565353 22.434643 38.125 23.125 38.125L 26.875 38.125C 27.565357 38.125 28.125 37.565353 28.125 36.875L 28.125 32.685001M 25 38.125L 25 39.375M 21.25 29.37125L 21.25 23.75L 25 26.25L 28.75 23.75L 28.75 29.37125M 21.25 23.75L 25 15.625L 28.75 23.75M 13.75 21.875C 13.75 28.088203 18.786797 33.125 25 33.125C 31.213203 33.125 36.25 28.088203 36.25 21.875C 36.25 15.661797 31.213203 10.625 25 10.625C 18.786797 10.625 13.75 15.661797 13.75 21.875ZM 25 26.25L 25 30.52M 27.096251 20.16625C 25.765678 20.777918 24.234318 20.777918 22.903749 20.166248"></path></g></g></g><g id="g-root-tx__93db6wkl8hdu-stroke" data-item-order="1000000000" transform="translate(123, 138)"></g><g id="g-root-exe_1d2zm5kklgutm-stroke" data-item-order="1000000000" transform="translate(483, 171)"><g id="exe_1d2zm5kklgutm-stroke" fill="none" stroke-linecap="round" stroke-linejoin="round" stroke-miterlimit="4" stroke="#ffe711" stroke-width="2"><g><path d="M 11.875 16.255001L 38.125 16.255001C 38.125 16.255001 39.375 16.255001 39.375 17.505001L 39.375 32.505001C 39.375 32.505001 39.375 33.755001 38.125 33.755001L 11.875 33.755001C 11.875 33.755001 10.625 33.755001 10.625 32.505001L 10.625 17.505001C 10.625 17.505001 10.625 16.255001 11.875 16.255001M 20.625 28.75L 18.125 28.75C 17.434645 28.75 16.875 28.190357 16.875 27.5L 16.875 22.5C 16.875 21.809643 17.434645 21.25 18.125 21.25L 20.625 21.25M 16.875 25.004999L 19.375 25.004999M 33.125 28.75L 30.625 28.75C 29.934643 28.75 29.375 28.190357 29.375 27.5L 29.375 22.5C 29.375 21.809643 29.934643 21.25 30.625 21.25L 33.125 21.25M 29.375 25.004999L 31.875 25.004999M 23.125 28.754999L 26.875 21.254999M 26.875 28.754999L 23.125 21.254999"></path></g></g></g></g></g></svg>